<mxfile host="app.diagrams.net" modified="2023-06-23T23:21:19.855Z" agent="Mozilla/5.0 (Windows NT 10.0; Win64; x64) AppleWebKit/537.36 (KHTML, like Gecko) Chrome/114.0.0.0 Safari/537.36" etag="EPNRV8JqxU8s4GEAeCLB" version="21.5.0" type="device" pages="2">
  <diagram id="yDXIRP0UiXxNwI_V2tYm" name="Fig3">
    <mxGraphModel dx="1434" dy="796" grid="1" gridSize="10" guides="1" tooltips="1" connect="1" arrows="1" fold="1" page="1" pageScale="1" pageWidth="827" pageHeight="1169" math="1" shadow="0">
      <root>
        <mxCell id="0" />
        <mxCell id="1" parent="0" />
        <mxCell id="J78JcgfEchfYbr3B-6bn-1" value="" style="ellipse;whiteSpace=wrap;html=1;aspect=fixed;fillColor=#4D4D4D;strokeColor=#000000;fontColor=#ffffff;strokeWidth=2;" vertex="1" parent="1">
          <mxGeometry x="540" y="182.5" width="70" height="70" as="geometry" />
        </mxCell>
        <mxCell id="J78JcgfEchfYbr3B-6bn-2" style="edgeStyle=orthogonalEdgeStyle;rounded=0;orthogonalLoop=1;jettySize=auto;html=1;strokeWidth=2;strokeColor=#4D4D4D;" edge="1" parent="1">
          <mxGeometry relative="1" as="geometry">
            <mxPoint x="320" y="207" as="sourcePoint" />
            <mxPoint x="405.75" y="207" as="targetPoint" />
          </mxGeometry>
        </mxCell>
        <mxCell id="J78JcgfEchfYbr3B-6bn-3" value="" style="ellipse;whiteSpace=wrap;html=1;aspect=fixed;fillColor=#4D4D4D;strokeColor=#000000;fontColor=#ffffff;strokeWidth=2;" vertex="1" parent="1">
          <mxGeometry x="236" y="170" width="70" height="70" as="geometry" />
        </mxCell>
        <mxCell id="J78JcgfEchfYbr3B-6bn-4" value="" style="ellipse;whiteSpace=wrap;html=1;aspect=fixed;fillColor=#999999;strokeColor=#000000;strokeWidth=2;" vertex="1" parent="1">
          <mxGeometry x="246" y="180" width="50" height="50" as="geometry" />
        </mxCell>
        <mxCell id="J78JcgfEchfYbr3B-6bn-5" style="rounded=0;orthogonalLoop=1;jettySize=auto;html=1;entryX=0;entryY=1;entryDx=0;entryDy=0;strokeWidth=2;strokeColor=#4D4D4D;" edge="1" parent="1" source="J78JcgfEchfYbr3B-6bn-6" target="J78JcgfEchfYbr3B-6bn-3">
          <mxGeometry relative="1" as="geometry" />
        </mxCell>
        <mxCell id="J78JcgfEchfYbr3B-6bn-6" value="" style="ellipse;whiteSpace=wrap;html=1;aspect=fixed;fillColor=#d5e8d4;strokeColor=#82B366;strokeWidth=2;" vertex="1" parent="1">
          <mxGeometry x="150" y="250" width="50" height="50" as="geometry" />
        </mxCell>
        <mxCell id="J78JcgfEchfYbr3B-6bn-7" style="rounded=0;orthogonalLoop=1;jettySize=auto;html=1;entryX=0;entryY=0;entryDx=0;entryDy=0;strokeWidth=2;strokeColor=#4D4D4D;" edge="1" parent="1" source="J78JcgfEchfYbr3B-6bn-8" target="J78JcgfEchfYbr3B-6bn-3">
          <mxGeometry relative="1" as="geometry" />
        </mxCell>
        <mxCell id="J78JcgfEchfYbr3B-6bn-8" value="" style="ellipse;whiteSpace=wrap;html=1;aspect=fixed;fillColor=#dae8fc;strokeColor=#6C8EBF;strokeWidth=2;" vertex="1" parent="1">
          <mxGeometry x="180" y="120" width="50" height="50" as="geometry" />
        </mxCell>
        <mxCell id="J78JcgfEchfYbr3B-6bn-9" style="rounded=0;orthogonalLoop=1;jettySize=auto;html=1;entryX=1;entryY=0;entryDx=0;entryDy=0;strokeWidth=2;strokeColor=#4D4D4D;" edge="1" parent="1" source="J78JcgfEchfYbr3B-6bn-10" target="J78JcgfEchfYbr3B-6bn-3">
          <mxGeometry relative="1" as="geometry" />
        </mxCell>
        <mxCell id="J78JcgfEchfYbr3B-6bn-10" value="" style="ellipse;whiteSpace=wrap;html=1;aspect=fixed;fillColor=#dae8fc;strokeColor=#6C8EBF;strokeWidth=2;" vertex="1" parent="1">
          <mxGeometry x="320" y="120" width="50" height="50" as="geometry" />
        </mxCell>
        <mxCell id="J78JcgfEchfYbr3B-6bn-11" style="rounded=0;orthogonalLoop=1;jettySize=auto;html=1;strokeWidth=2;strokeColor=#4D4D4D;exitX=1;exitY=0.5;exitDx=0;exitDy=0;entryX=0;entryY=0.5;entryDx=0;entryDy=0;" edge="1" parent="1" source="J78JcgfEchfYbr3B-6bn-12" target="J78JcgfEchfYbr3B-6bn-3">
          <mxGeometry relative="1" as="geometry">
            <mxPoint x="370" y="230" as="targetPoint" />
          </mxGeometry>
        </mxCell>
        <mxCell id="J78JcgfEchfYbr3B-6bn-12" value="" style="ellipse;whiteSpace=wrap;html=1;aspect=fixed;fillColor=#dae8fc;strokeColor=#6C8EBF;strokeWidth=2;" vertex="1" parent="1">
          <mxGeometry x="130" y="180" width="50" height="50" as="geometry" />
        </mxCell>
        <mxCell id="J78JcgfEchfYbr3B-6bn-13" value="" style="ellipse;whiteSpace=wrap;html=1;aspect=fixed;fillColor=#f8cecc;strokeColor=#B85450;strokeWidth=2;" vertex="1" parent="1">
          <mxGeometry x="650" y="250" width="50" height="50" as="geometry" />
        </mxCell>
        <mxCell id="J78JcgfEchfYbr3B-6bn-14" value="" style="endArrow=none;html=1;rounded=0;strokeWidth=3;dashed=1;strokeColor=#4D4D4D;" edge="1" parent="1">
          <mxGeometry width="50" height="50" relative="1" as="geometry">
            <mxPoint x="520" y="302.5" as="sourcePoint" />
            <mxPoint x="520" y="122.5" as="targetPoint" />
          </mxGeometry>
        </mxCell>
        <mxCell id="J78JcgfEchfYbr3B-6bn-15" value="&lt;font style=&quot;font-size: 14px;&quot;&gt;TARGET&lt;/font&gt;" style="text;html=1;strokeColor=none;fillColor=none;align=center;verticalAlign=middle;whiteSpace=wrap;rounded=0;fontSize=22;" vertex="1" parent="1">
          <mxGeometry x="690" y="140" width="93.5" height="20" as="geometry" />
        </mxCell>
        <mxCell id="J78JcgfEchfYbr3B-6bn-16" style="edgeStyle=orthogonalEdgeStyle;rounded=0;orthogonalLoop=1;jettySize=auto;html=1;entryX=0.5;entryY=0;entryDx=0;entryDy=0;strokeWidth=2;" edge="1" parent="1" source="J78JcgfEchfYbr3B-6bn-17" target="J78JcgfEchfYbr3B-6bn-22">
          <mxGeometry relative="1" as="geometry" />
        </mxCell>
        <mxCell id="J78JcgfEchfYbr3B-6bn-17" value="" style="rounded=0;whiteSpace=wrap;html=1;container=0;fillColor=#a20025;strokeColor=#4D4D4D;fontColor=#ffffff;strokeWidth=2;" vertex="1" parent="1">
          <mxGeometry x="420" y="197.5" width="30" height="20" as="geometry" />
        </mxCell>
        <mxCell id="J78JcgfEchfYbr3B-6bn-18" value="&lt;p style=&quot;line-height: 80%;&quot;&gt;&lt;font style=&quot;font-size: 14px;&quot;&gt;CHARACTERISITC&lt;br&gt;FEATURE&lt;/font&gt;&lt;/p&gt;" style="text;html=1;strokeColor=none;fillColor=none;align=center;verticalAlign=middle;whiteSpace=wrap;rounded=0;container=0;fontSize=22;" vertex="1" parent="1">
          <mxGeometry x="367" y="147.5" width="146.75" height="50" as="geometry" />
        </mxCell>
        <mxCell id="J78JcgfEchfYbr3B-6bn-19" style="edgeStyle=orthogonalEdgeStyle;rounded=0;orthogonalLoop=1;jettySize=auto;html=1;exitX=1;exitY=0.5;exitDx=0;exitDy=0;entryX=0;entryY=0.5;entryDx=0;entryDy=0;" edge="1" parent="1" source="J78JcgfEchfYbr3B-6bn-20" target="J78JcgfEchfYbr3B-6bn-21">
          <mxGeometry relative="1" as="geometry" />
        </mxCell>
        <mxCell id="J78JcgfEchfYbr3B-6bn-20" value="" style="rounded=0;whiteSpace=wrap;html=1;container=0;strokeWidth=2;strokeColor=#4D4D4D;" vertex="1" parent="1">
          <mxGeometry x="245" y="257.5" width="60" height="20" as="geometry" />
        </mxCell>
        <mxCell id="J78JcgfEchfYbr3B-6bn-21" value="" style="rounded=0;whiteSpace=wrap;html=1;container=0;strokeWidth=2;strokeColor=#4D4D4D;" vertex="1" parent="1">
          <mxGeometry x="370" y="257.5" width="50" height="20" as="geometry" />
        </mxCell>
        <mxCell id="J78JcgfEchfYbr3B-6bn-22" value="" style="rounded=0;whiteSpace=wrap;html=1;container=0;fillColor=#a20025;strokeColor=#4D4D4D;fontColor=#ffffff;strokeWidth=2;" vertex="1" parent="1">
          <mxGeometry x="420" y="257.5" width="30" height="20" as="geometry" />
        </mxCell>
        <mxCell id="J78JcgfEchfYbr3B-6bn-23" value="&lt;font style=&quot;font-size: 18px;&quot;&gt;$$x_{new}$$&lt;/font&gt;" style="text;html=1;strokeColor=none;fillColor=none;align=center;verticalAlign=middle;whiteSpace=wrap;rounded=0;fontSize=24;fontStyle=1" vertex="1" parent="1">
          <mxGeometry x="373.25" y="287.5" width="60" height="20" as="geometry" />
        </mxCell>
        <mxCell id="J78JcgfEchfYbr3B-6bn-24" value="&lt;font style=&quot;font-size: 18px;&quot;&gt;$$x$$&lt;/font&gt;" style="text;html=1;strokeColor=none;fillColor=none;align=center;verticalAlign=middle;whiteSpace=wrap;rounded=0;fontSize=24;fontStyle=1" vertex="1" parent="1">
          <mxGeometry x="245" y="287.5" width="60" height="20" as="geometry" />
        </mxCell>
        <mxCell id="J78JcgfEchfYbr3B-6bn-25" value="" style="ellipse;whiteSpace=wrap;html=1;aspect=fixed;fillColor=#dae8fc;strokeColor=#6C8EBF;strokeWidth=2;" vertex="1" parent="1">
          <mxGeometry x="650" y="125" width="50" height="50" as="geometry" />
        </mxCell>
        <mxCell id="J78JcgfEchfYbr3B-6bn-26" value="" style="ellipse;whiteSpace=wrap;html=1;aspect=fixed;fillColor=#d5e8d4;strokeColor=#82B366;strokeWidth=2;" vertex="1" parent="1">
          <mxGeometry x="650" y="185" width="50" height="50" as="geometry" />
        </mxCell>
        <mxCell id="J78JcgfEchfYbr3B-6bn-27" value="" style="ellipse;whiteSpace=wrap;html=1;aspect=fixed;fillColor=#999999;strokeColor=#000000;strokeWidth=2;" vertex="1" parent="1">
          <mxGeometry x="550" y="192.5" width="50" height="50" as="geometry" />
        </mxCell>
        <mxCell id="J78JcgfEchfYbr3B-6bn-28" value="&lt;span style=&quot;font-size: 14px;&quot;&gt;SOURCE&lt;/span&gt;" style="text;html=1;strokeColor=none;fillColor=none;align=center;verticalAlign=middle;whiteSpace=wrap;rounded=0;fontSize=22;" vertex="1" parent="1">
          <mxGeometry x="690" y="200" width="93.5" height="20" as="geometry" />
        </mxCell>
        <mxCell id="J78JcgfEchfYbr3B-6bn-29" value="&lt;span style=&quot;font-size: 14px;&quot;&gt;TEST&lt;/span&gt;" style="text;html=1;strokeColor=none;fillColor=none;align=center;verticalAlign=middle;whiteSpace=wrap;rounded=0;fontSize=22;" vertex="1" parent="1">
          <mxGeometry x="690" y="265" width="93.5" height="20" as="geometry" />
        </mxCell>
        <mxCell id="J78JcgfEchfYbr3B-6bn-30" value="" style="shape=curlyBracket;whiteSpace=wrap;html=1;rounded=1;labelPosition=left;verticalLabelPosition=middle;align=right;verticalAlign=middle;strokeWidth=5;" vertex="1" parent="1">
          <mxGeometry x="620" y="142.5" width="20" height="145" as="geometry" />
        </mxCell>
      </root>
    </mxGraphModel>
  </diagram>
  <diagram name="Fig4" id="UPVXSFSfEhRFLWDUVEhU">
    <mxGraphModel dx="1434" dy="796" grid="1" gridSize="10" guides="1" tooltips="1" connect="1" arrows="1" fold="1" page="1" pageScale="1" pageWidth="827" pageHeight="1169" math="1" shadow="0">
      <root>
        <mxCell id="0" />
        <mxCell id="1" parent="0" />
        <mxCell id="VOyZflQbIAdHZ1atrvON-1" value="" style="rounded=0;whiteSpace=wrap;html=1;dashed=1;fillColor=#FFFFFF;" vertex="1" parent="1">
          <mxGeometry x="670" y="230" width="620" height="370" as="geometry" />
        </mxCell>
        <mxCell id="VOyZflQbIAdHZ1atrvON-2" value="" style="rounded=0;whiteSpace=wrap;html=1;dashed=1;fillColor=#FFFFFF;" vertex="1" parent="1">
          <mxGeometry x="220" y="290" width="429" height="310" as="geometry" />
        </mxCell>
        <mxCell id="VOyZflQbIAdHZ1atrvON-3" value="" style="rounded=1;whiteSpace=wrap;html=1;strokeWidth=1;fillColor=#F19C99;strokeColor=#4D4D4D;opacity=20;dashed=1;dashPattern=8 8;" vertex="1" parent="1">
          <mxGeometry x="680" y="390" width="450" height="170" as="geometry" />
        </mxCell>
        <mxCell id="VOyZflQbIAdHZ1atrvON-4" value="" style="rounded=1;whiteSpace=wrap;html=1;fillColor=#67AB9F;opacity=20;dashed=1;dashPattern=12 12;" vertex="1" parent="1">
          <mxGeometry x="680" y="240" width="200" height="320" as="geometry" />
        </mxCell>
        <mxCell id="VOyZflQbIAdHZ1atrvON-5" value="&lt;font style=&quot;&quot;&gt;&lt;font style=&quot;font-size: 16px;&quot;&gt;$$(p+1)\cdot(m+1)$$&lt;/font&gt;&lt;/font&gt;" style="text;html=1;strokeColor=none;fillColor=none;align=center;verticalAlign=middle;whiteSpace=wrap;rounded=0;container=0;fontSize=16;" vertex="1" parent="1">
          <mxGeometry x="515.25" y="390" width="128" height="50" as="geometry" />
        </mxCell>
        <mxCell id="VOyZflQbIAdHZ1atrvON-6" value="" style="endArrow=classic;html=1;rounded=0;" edge="1" parent="1">
          <mxGeometry width="50" height="50" relative="1" as="geometry">
            <mxPoint x="769" y="480" as="sourcePoint" />
            <mxPoint x="809" y="480" as="targetPoint" />
          </mxGeometry>
        </mxCell>
        <mxCell id="VOyZflQbIAdHZ1atrvON-7" value="" style="endArrow=classic;html=1;rounded=0;" edge="1" parent="1">
          <mxGeometry width="50" height="50" relative="1" as="geometry">
            <mxPoint x="860" y="480" as="sourcePoint" />
            <mxPoint x="900" y="480" as="targetPoint" />
          </mxGeometry>
        </mxCell>
        <mxCell id="VOyZflQbIAdHZ1atrvON-8" value="" style="endArrow=classic;html=1;rounded=0;" edge="1" parent="1">
          <mxGeometry width="50" height="50" relative="1" as="geometry">
            <mxPoint x="980" y="480" as="sourcePoint" />
            <mxPoint x="1020" y="480" as="targetPoint" />
          </mxGeometry>
        </mxCell>
        <mxCell id="VOyZflQbIAdHZ1atrvON-9" value="" style="rounded=0;whiteSpace=wrap;html=1;container=0;fillColor=#a20025;strokeColor=#6F0000;fontColor=#ffffff;" vertex="1" parent="1">
          <mxGeometry x="819.5" y="475" width="30" height="25" as="geometry" />
        </mxCell>
        <mxCell id="VOyZflQbIAdHZ1atrvON-10" value="" style="rounded=0;whiteSpace=wrap;html=1;container=0;fillColor=#e1d5e7;strokeColor=#9673a6;" vertex="1" parent="1">
          <mxGeometry x="910" y="440" width="60" height="20" as="geometry" />
        </mxCell>
        <mxCell id="VOyZflQbIAdHZ1atrvON-11" value="" style="rounded=0;whiteSpace=wrap;html=1;container=0;fillColor=#e1d5e7;strokeColor=#9673a6;" vertex="1" parent="1">
          <mxGeometry x="910" y="460" width="60" height="20" as="geometry" />
        </mxCell>
        <mxCell id="VOyZflQbIAdHZ1atrvON-12" value="" style="rounded=0;whiteSpace=wrap;html=1;container=0;fillColor=#e1d5e7;strokeColor=#9673a6;" vertex="1" parent="1">
          <mxGeometry x="910" y="480" width="60" height="20" as="geometry" />
        </mxCell>
        <mxCell id="VOyZflQbIAdHZ1atrvON-13" value="" style="rounded=0;whiteSpace=wrap;html=1;container=0;fillColor=#e1d5e7;strokeColor=#9673a6;" vertex="1" parent="1">
          <mxGeometry x="910" y="500" width="60" height="20" as="geometry" />
        </mxCell>
        <mxCell id="VOyZflQbIAdHZ1atrvON-14" value="" style="rounded=0;whiteSpace=wrap;html=1;container=0;fillColor=#e1d5e7;strokeColor=#9673a6;" vertex="1" parent="1">
          <mxGeometry x="910" y="520" width="60" height="20" as="geometry" />
        </mxCell>
        <mxCell id="VOyZflQbIAdHZ1atrvON-15" value="" style="rounded=0;whiteSpace=wrap;html=1;container=0;" vertex="1" parent="1">
          <mxGeometry x="1030" y="440" width="60" height="20" as="geometry" />
        </mxCell>
        <mxCell id="VOyZflQbIAdHZ1atrvON-16" value="" style="rounded=0;whiteSpace=wrap;html=1;container=0;" vertex="1" parent="1">
          <mxGeometry x="1030" y="460" width="60" height="20" as="geometry" />
        </mxCell>
        <mxCell id="VOyZflQbIAdHZ1atrvON-17" value="" style="rounded=0;whiteSpace=wrap;html=1;container=0;" vertex="1" parent="1">
          <mxGeometry x="1030" y="480" width="60" height="20" as="geometry" />
        </mxCell>
        <mxCell id="VOyZflQbIAdHZ1atrvON-18" value="" style="rounded=0;whiteSpace=wrap;html=1;container=0;" vertex="1" parent="1">
          <mxGeometry x="1030" y="500" width="60" height="20" as="geometry" />
        </mxCell>
        <mxCell id="VOyZflQbIAdHZ1atrvON-19" value="" style="rounded=0;whiteSpace=wrap;html=1;container=0;" vertex="1" parent="1">
          <mxGeometry x="1030" y="520" width="60" height="20" as="geometry" />
        </mxCell>
        <mxCell id="VOyZflQbIAdHZ1atrvON-20" value="" style="rounded=0;whiteSpace=wrap;html=1;container=0;" vertex="1" parent="1">
          <mxGeometry x="559" y="440" width="60" height="20" as="geometry" />
        </mxCell>
        <mxCell id="VOyZflQbIAdHZ1atrvON-21" value="" style="rounded=0;whiteSpace=wrap;html=1;container=0;" vertex="1" parent="1">
          <mxGeometry x="559" y="460" width="60" height="20" as="geometry" />
        </mxCell>
        <mxCell id="VOyZflQbIAdHZ1atrvON-22" value="" style="rounded=0;whiteSpace=wrap;html=1;fillColor=#d0cee2;strokeColor=#56517e;container=0;" vertex="1" parent="1">
          <mxGeometry x="559" y="480" width="60" height="20" as="geometry" />
        </mxCell>
        <mxCell id="VOyZflQbIAdHZ1atrvON-23" value="" style="rounded=0;whiteSpace=wrap;html=1;container=0;" vertex="1" parent="1">
          <mxGeometry x="559" y="500" width="60" height="20" as="geometry" />
        </mxCell>
        <mxCell id="VOyZflQbIAdHZ1atrvON-24" value="" style="rounded=0;whiteSpace=wrap;html=1;container=0;" vertex="1" parent="1">
          <mxGeometry x="559" y="520" width="60" height="20" as="geometry" />
        </mxCell>
        <mxCell id="VOyZflQbIAdHZ1atrvON-25" value="" style="rounded=0;whiteSpace=wrap;html=1;container=0;fillColor=#fff2cc;strokeColor=#d6b656;" vertex="1" parent="1">
          <mxGeometry x="699" y="440" width="60" height="20" as="geometry" />
        </mxCell>
        <mxCell id="VOyZflQbIAdHZ1atrvON-26" value="" style="rounded=0;whiteSpace=wrap;html=1;container=0;fillColor=#fff2cc;strokeColor=#d6b656;" vertex="1" parent="1">
          <mxGeometry x="699" y="460" width="60" height="20" as="geometry" />
        </mxCell>
        <mxCell id="VOyZflQbIAdHZ1atrvON-27" value="" style="rounded=0;whiteSpace=wrap;html=1;container=0;fillColor=#fff2cc;strokeColor=#d6b656;" vertex="1" parent="1">
          <mxGeometry x="699" y="480" width="60" height="20" as="geometry" />
        </mxCell>
        <mxCell id="VOyZflQbIAdHZ1atrvON-28" value="" style="rounded=0;whiteSpace=wrap;html=1;container=0;fillColor=#fff2cc;strokeColor=#d6b656;" vertex="1" parent="1">
          <mxGeometry x="699" y="500" width="60" height="20" as="geometry" />
        </mxCell>
        <mxCell id="VOyZflQbIAdHZ1atrvON-29" value="" style="rounded=0;whiteSpace=wrap;html=1;container=0;fillColor=#fff2cc;strokeColor=#d6b656;" vertex="1" parent="1">
          <mxGeometry x="699" y="520" width="60" height="20" as="geometry" />
        </mxCell>
        <mxCell id="VOyZflQbIAdHZ1atrvON-30" value="LCF" style="text;html=1;strokeColor=none;fillColor=none;align=center;verticalAlign=middle;whiteSpace=wrap;rounded=0;container=0;fontStyle=1;fontSize=16;" vertex="1" parent="1">
          <mxGeometry x="809" y="445" width="51" height="30" as="geometry" />
        </mxCell>
        <mxCell id="VOyZflQbIAdHZ1atrvON-31" value="Reconstructed Data" style="text;html=1;strokeColor=none;fillColor=none;align=center;verticalAlign=middle;whiteSpace=wrap;rounded=0;container=0;fontStyle=1;fontSize=16;" vertex="1" parent="1">
          <mxGeometry x="1020" y="400" width="80" height="30" as="geometry" />
        </mxCell>
        <mxCell id="VOyZflQbIAdHZ1atrvON-32" value="" style="endArrow=classic;html=1;rounded=0;" edge="1" parent="1">
          <mxGeometry width="50" height="50" relative="1" as="geometry">
            <mxPoint x="635" y="480" as="sourcePoint" />
            <mxPoint x="690" y="480" as="targetPoint" />
          </mxGeometry>
        </mxCell>
        <mxCell id="VOyZflQbIAdHZ1atrvON-33" value="" style="rounded=0;whiteSpace=wrap;html=1;fillColor=#f8cecc;strokeColor=#b85450;fontSize=16;" vertex="1" parent="1">
          <mxGeometry x="800" y="341.25" width="60" height="22.5" as="geometry" />
        </mxCell>
        <mxCell id="VOyZflQbIAdHZ1atrvON-34" value="" style="endArrow=classic;html=1;rounded=0;fillColor=#d80073;strokeColor=#A50040;" edge="1" parent="1">
          <mxGeometry width="50" height="50" relative="1" as="geometry">
            <mxPoint x="690" y="499" as="sourcePoint" />
            <mxPoint x="635" y="499" as="targetPoint" />
          </mxGeometry>
        </mxCell>
        <mxCell id="VOyZflQbIAdHZ1atrvON-35" value="&lt;b style=&quot;&quot;&gt;&lt;font style=&quot;font-size: 14px;&quot;&gt;Encoder Layers&lt;/font&gt;&lt;/b&gt;" style="text;html=1;strokeColor=#d79b00;fillColor=#ffe6cc;align=center;verticalAlign=middle;whiteSpace=wrap;rounded=0;fontStyle=0;fontSize=16;" vertex="1" parent="1">
          <mxGeometry x="545.12" y="770" width="170" height="30" as="geometry" />
        </mxCell>
        <mxCell id="VOyZflQbIAdHZ1atrvON-36" value="&lt;b style=&quot;&quot;&gt;&lt;font style=&quot;font-size: 14px;&quot;&gt;Decoder Layers&lt;/font&gt;&lt;/b&gt;" style="text;html=1;strokeColor=#9673a6;fillColor=#e1d5e7;align=center;verticalAlign=middle;whiteSpace=wrap;rounded=0;fontStyle=0;fontSize=16;" vertex="1" parent="1">
          <mxGeometry x="955.12" y="770" width="170" height="30" as="geometry" />
        </mxCell>
        <mxCell id="VOyZflQbIAdHZ1atrvON-37" value="" style="rounded=0;whiteSpace=wrap;html=1;container=0;fillColor=#080808;" vertex="1" parent="1">
          <mxGeometry x="610" y="480" width="9" height="20" as="geometry" />
        </mxCell>
        <mxCell id="VOyZflQbIAdHZ1atrvON-38" value="" style="endArrow=classic;html=1;rounded=0;" edge="1" parent="1">
          <mxGeometry width="50" height="50" relative="1" as="geometry">
            <mxPoint x="820" y="420" as="sourcePoint" />
            <mxPoint x="820" y="370" as="targetPoint" />
          </mxGeometry>
        </mxCell>
        <mxCell id="VOyZflQbIAdHZ1atrvON-39" value="" style="endArrow=classic;html=1;rounded=0;fillColor=#d80073;strokeColor=#A50040;" edge="1" parent="1">
          <mxGeometry width="50" height="50" relative="1" as="geometry">
            <mxPoint x="844" y="370" as="sourcePoint" />
            <mxPoint x="844" y="420" as="targetPoint" />
          </mxGeometry>
        </mxCell>
        <mxCell id="VOyZflQbIAdHZ1atrvON-40" value="&lt;b style=&quot;&quot;&gt;&lt;font style=&quot;font-size: 14px;&quot;&gt;Encoder-Estimator Stage&lt;/font&gt;&lt;/b&gt;" style="text;html=1;strokeColor=#67AB9F;fillColor=#67AB9F;align=center;verticalAlign=middle;whiteSpace=wrap;rounded=0;fontStyle=0;fontSize=16;opacity=50;" vertex="1" parent="1">
          <mxGeometry x="893.75" y="260" width="136.25" height="50" as="geometry" />
        </mxCell>
        <mxCell id="VOyZflQbIAdHZ1atrvON-41" value="" style="endArrow=classic;html=1;rounded=0;fillColor=#d80073;strokeColor=#A50040;" edge="1" parent="1">
          <mxGeometry width="50" height="50" relative="1" as="geometry">
            <mxPoint x="809" y="499.25" as="sourcePoint" />
            <mxPoint x="769" y="499" as="targetPoint" />
          </mxGeometry>
        </mxCell>
        <mxCell id="VOyZflQbIAdHZ1atrvON-42" value="" style="endArrow=classic;html=1;rounded=0;fillColor=#d80073;strokeColor=#A50040;" edge="1" parent="1">
          <mxGeometry width="50" height="50" relative="1" as="geometry">
            <mxPoint x="900" y="500.25" as="sourcePoint" />
            <mxPoint x="860" y="500" as="targetPoint" />
          </mxGeometry>
        </mxCell>
        <mxCell id="VOyZflQbIAdHZ1atrvON-43" value="" style="endArrow=classic;html=1;rounded=0;fillColor=#d80073;strokeColor=#A50040;" edge="1" parent="1">
          <mxGeometry width="50" height="50" relative="1" as="geometry">
            <mxPoint x="1020" y="500.25" as="sourcePoint" />
            <mxPoint x="980" y="500" as="targetPoint" />
          </mxGeometry>
        </mxCell>
        <mxCell id="VOyZflQbIAdHZ1atrvON-44" value="" style="ellipse;whiteSpace=wrap;html=1;aspect=fixed;fillColor=#1ba1e2;strokeColor=#006EAF;fontColor=#ffffff;" vertex="1" parent="1">
          <mxGeometry x="466.5" y="462.5" width="62.5" height="62.5" as="geometry" />
        </mxCell>
        <mxCell id="VOyZflQbIAdHZ1atrvON-45" value="" style="ellipse;whiteSpace=wrap;html=1;aspect=fixed;fillColor=#7EA6E0;strokeColor=#6c8ebf;" vertex="1" parent="1">
          <mxGeometry x="472.75" y="468.75" width="50" height="50" as="geometry" />
        </mxCell>
        <mxCell id="VOyZflQbIAdHZ1atrvON-46" value="" style="rounded=0;whiteSpace=wrap;html=1;container=0;" vertex="1" parent="1">
          <mxGeometry x="279" y="465" width="50" height="27.5" as="geometry" />
        </mxCell>
        <mxCell id="VOyZflQbIAdHZ1atrvON-47" value="" style="endArrow=classic;html=1;rounded=0;exitX=1;exitY=0;exitDx=0;exitDy=0;" edge="1" parent="1" source="VOyZflQbIAdHZ1atrvON-48" target="VOyZflQbIAdHZ1atrvON-44">
          <mxGeometry width="50" height="50" relative="1" as="geometry">
            <mxPoint x="399" y="549.5" as="sourcePoint" />
            <mxPoint x="439" y="549.5" as="targetPoint" />
          </mxGeometry>
        </mxCell>
        <mxCell id="VOyZflQbIAdHZ1atrvON-48" value="" style="ellipse;whiteSpace=wrap;html=1;aspect=fixed;fillColor=#67AB9F;strokeColor=#6c8ebf;" vertex="1" parent="1">
          <mxGeometry x="390" y="525" width="50" height="50" as="geometry" />
        </mxCell>
        <mxCell id="VOyZflQbIAdHZ1atrvON-49" value="" style="ellipse;whiteSpace=wrap;html=1;aspect=fixed;fillColor=#7EA6E0;strokeColor=#6c8ebf;" vertex="1" parent="1">
          <mxGeometry x="340" y="450" width="50" height="50" as="geometry" />
        </mxCell>
        <mxCell id="VOyZflQbIAdHZ1atrvON-50" value="" style="ellipse;whiteSpace=wrap;html=1;aspect=fixed;fillColor=#67AB9F;strokeColor=#6c8ebf;" vertex="1" parent="1">
          <mxGeometry x="378" y="385" width="50" height="50" as="geometry" />
        </mxCell>
        <mxCell id="VOyZflQbIAdHZ1atrvON-51" value="" style="ellipse;whiteSpace=wrap;html=1;aspect=fixed;fillColor=#7EA6E0;strokeColor=#6c8ebf;" vertex="1" parent="1">
          <mxGeometry x="435.25" y="370" width="50" height="50" as="geometry" />
        </mxCell>
        <mxCell id="VOyZflQbIAdHZ1atrvON-52" value="" style="rounded=0;whiteSpace=wrap;html=1;container=0;" vertex="1" parent="1">
          <mxGeometry x="329" y="545" width="50" height="27.5" as="geometry" />
        </mxCell>
        <mxCell id="VOyZflQbIAdHZ1atrvON-53" value="" style="rounded=0;whiteSpace=wrap;html=1;container=0;" vertex="1" parent="1">
          <mxGeometry x="320" y="395" width="50" height="27.5" as="geometry" />
        </mxCell>
        <mxCell id="VOyZflQbIAdHZ1atrvON-54" value="" style="rounded=0;whiteSpace=wrap;html=1;container=0;" vertex="1" parent="1">
          <mxGeometry x="425.25" y="330" width="50" height="27.5" as="geometry" />
        </mxCell>
        <mxCell id="VOyZflQbIAdHZ1atrvON-55" value="&lt;font style=&quot;font-size: 16px;&quot;&gt;$$(p+1)$$&lt;/font&gt;" style="text;html=1;strokeColor=none;fillColor=none;align=center;verticalAlign=middle;whiteSpace=wrap;rounded=0;container=0;fontSize=16;" vertex="1" parent="1">
          <mxGeometry x="435.25" y="300" width="30" height="30" as="geometry" />
        </mxCell>
        <mxCell id="VOyZflQbIAdHZ1atrvON-56" value="" style="endArrow=classic;html=1;rounded=0;exitX=1;exitY=0.5;exitDx=0;exitDy=0;entryX=0;entryY=0.5;entryDx=0;entryDy=0;" edge="1" parent="1" source="VOyZflQbIAdHZ1atrvON-49" target="VOyZflQbIAdHZ1atrvON-44">
          <mxGeometry width="50" height="50" relative="1" as="geometry">
            <mxPoint x="429" y="517.5" as="sourcePoint" />
            <mxPoint x="409" y="422.5" as="targetPoint" />
          </mxGeometry>
        </mxCell>
        <mxCell id="VOyZflQbIAdHZ1atrvON-57" value="" style="endArrow=classic;html=1;rounded=0;exitX=1;exitY=1;exitDx=0;exitDy=0;" edge="1" parent="1" source="VOyZflQbIAdHZ1atrvON-50" target="VOyZflQbIAdHZ1atrvON-44">
          <mxGeometry width="50" height="50" relative="1" as="geometry">
            <mxPoint x="389" y="431" as="sourcePoint" />
            <mxPoint x="516" y="450" as="targetPoint" />
          </mxGeometry>
        </mxCell>
        <mxCell id="VOyZflQbIAdHZ1atrvON-58" value="" style="endArrow=classic;html=1;rounded=0;exitX=1;exitY=1;exitDx=0;exitDy=0;entryX=0.5;entryY=0;entryDx=0;entryDy=0;" edge="1" parent="1" source="VOyZflQbIAdHZ1atrvON-51" target="VOyZflQbIAdHZ1atrvON-44">
          <mxGeometry width="50" height="50" relative="1" as="geometry">
            <mxPoint x="401" y="438" as="sourcePoint" />
            <mxPoint x="479" y="465" as="targetPoint" />
          </mxGeometry>
        </mxCell>
        <mxCell id="VOyZflQbIAdHZ1atrvON-59" value="$$(p+1)$$" style="text;html=1;strokeColor=none;fillColor=none;align=center;verticalAlign=middle;whiteSpace=wrap;rounded=0;container=0;fontSize=16;" vertex="1" parent="1">
          <mxGeometry x="269" y="392.5" width="30" height="30" as="geometry" />
        </mxCell>
        <mxCell id="VOyZflQbIAdHZ1atrvON-60" value="$$(p+1)$$" style="text;html=1;strokeColor=none;fillColor=none;align=center;verticalAlign=middle;whiteSpace=wrap;rounded=0;container=0;fontSize=16;" vertex="1" parent="1">
          <mxGeometry x="289" y="495" width="30" height="30" as="geometry" />
        </mxCell>
        <mxCell id="VOyZflQbIAdHZ1atrvON-61" value="$$(p+1)$$" style="text;html=1;strokeColor=none;fillColor=none;align=center;verticalAlign=middle;whiteSpace=wrap;rounded=0;container=0;fontSize=16;" vertex="1" parent="1">
          <mxGeometry x="339" y="575" width="30" height="30" as="geometry" />
        </mxCell>
        <mxCell id="VOyZflQbIAdHZ1atrvON-62" value="" style="endArrow=classic;html=1;rounded=0;exitX=1;exitY=0.5;exitDx=0;exitDy=0;" edge="1" parent="1" source="VOyZflQbIAdHZ1atrvON-44">
          <mxGeometry width="50" height="50" relative="1" as="geometry">
            <mxPoint x="509" y="493" as="sourcePoint" />
            <mxPoint x="559" y="494" as="targetPoint" />
          </mxGeometry>
        </mxCell>
        <mxCell id="VOyZflQbIAdHZ1atrvON-63" style="edgeStyle=orthogonalEdgeStyle;rounded=0;orthogonalLoop=1;jettySize=auto;html=1;exitX=0.5;exitY=1;exitDx=0;exitDy=0;" edge="1" parent="1">
          <mxGeometry relative="1" as="geometry">
            <mxPoint x="429.5" y="760" as="sourcePoint" />
            <mxPoint x="429.5" y="760" as="targetPoint" />
          </mxGeometry>
        </mxCell>
        <mxCell id="VOyZflQbIAdHZ1atrvON-64" value="" style="group" vertex="1" connectable="0" parent="1">
          <mxGeometry x="505.12" y="650" width="310" height="100" as="geometry" />
        </mxCell>
        <mxCell id="VOyZflQbIAdHZ1atrvON-65" value="&lt;font style=&quot;font-size: 10px;&quot;&gt;&lt;b&gt;FNN&lt;br&gt;(1)&lt;/b&gt;&lt;br&gt;&lt;/font&gt;" style="text;html=1;strokeColor=none;fillColor=none;align=center;verticalAlign=middle;whiteSpace=wrap;rounded=0;" vertex="1" parent="VOyZflQbIAdHZ1atrvON-64">
          <mxGeometry x="263.8974358974359" y="15.384615384615385" width="46.1025641025641" height="30.76923076923077" as="geometry" />
        </mxCell>
        <mxCell id="VOyZflQbIAdHZ1atrvON-66" value="" style="group" vertex="1" connectable="0" parent="VOyZflQbIAdHZ1atrvON-64">
          <mxGeometry width="298.87179487179486" height="100" as="geometry" />
        </mxCell>
        <mxCell id="VOyZflQbIAdHZ1atrvON-67" value="" style="rounded=0;whiteSpace=wrap;html=1;container=0;fillColor=#fff2cc;strokeColor=#d6b656;" vertex="1" parent="VOyZflQbIAdHZ1atrvON-66">
          <mxGeometry y="33.333333333333336" width="44.66328192355589" height="13.333333333333336" as="geometry" />
        </mxCell>
        <mxCell id="VOyZflQbIAdHZ1atrvON-68" value="" style="rounded=0;whiteSpace=wrap;html=1;container=0;fillColor=#fff2cc;strokeColor=#d6b656;" vertex="1" parent="VOyZflQbIAdHZ1atrvON-66">
          <mxGeometry y="46.66666666666667" width="44.66328192355589" height="13.333333333333336" as="geometry" />
        </mxCell>
        <mxCell id="VOyZflQbIAdHZ1atrvON-69" value="" style="rounded=0;whiteSpace=wrap;html=1;container=0;fillColor=#fff2cc;strokeColor=#d6b656;" vertex="1" parent="VOyZflQbIAdHZ1atrvON-66">
          <mxGeometry y="60" width="44.66328192355589" height="13.333333333333336" as="geometry" />
        </mxCell>
        <mxCell id="VOyZflQbIAdHZ1atrvON-70" value="" style="rounded=0;whiteSpace=wrap;html=1;container=0;fillColor=#fff2cc;strokeColor=#d6b656;" vertex="1" parent="VOyZflQbIAdHZ1atrvON-66">
          <mxGeometry y="73.33333333333334" width="44.66328192355589" height="13.333333333333336" as="geometry" />
        </mxCell>
        <mxCell id="VOyZflQbIAdHZ1atrvON-71" value="" style="rounded=0;whiteSpace=wrap;html=1;container=0;fillColor=#fff2cc;strokeColor=#d6b656;" vertex="1" parent="VOyZflQbIAdHZ1atrvON-66">
          <mxGeometry y="86.66666666666667" width="44.66328192355589" height="13.333333333333336" as="geometry" />
        </mxCell>
        <mxCell id="VOyZflQbIAdHZ1atrvON-72" value="&lt;font style=&quot;font-size: 10px;&quot;&gt;&lt;b&gt;1D-CNN&lt;br&gt;(16)&lt;/b&gt;&lt;br&gt;&lt;/font&gt;" style="text;html=1;strokeColor=none;fillColor=none;align=center;verticalAlign=middle;whiteSpace=wrap;rounded=0;" vertex="1" parent="VOyZflQbIAdHZ1atrvON-66">
          <mxGeometry x="1.4887760641185297" width="43.17450585943735" height="26.66666666666667" as="geometry" />
        </mxCell>
        <mxCell id="VOyZflQbIAdHZ1atrvON-73" value="" style="rounded=0;whiteSpace=wrap;html=1;container=0;fillColor=#fff2cc;strokeColor=#d6b656;" vertex="1" parent="VOyZflQbIAdHZ1atrvON-66">
          <mxGeometry x="89.32656384711179" y="33.333333333333336" width="44.66328192355589" height="13.333333333333336" as="geometry" />
        </mxCell>
        <mxCell id="VOyZflQbIAdHZ1atrvON-74" value="" style="rounded=0;whiteSpace=wrap;html=1;container=0;fillColor=#fff2cc;strokeColor=#d6b656;" vertex="1" parent="VOyZflQbIAdHZ1atrvON-66">
          <mxGeometry x="89.32656384711179" y="46.66666666666667" width="44.66328192355589" height="13.333333333333336" as="geometry" />
        </mxCell>
        <mxCell id="VOyZflQbIAdHZ1atrvON-75" value="" style="rounded=0;whiteSpace=wrap;html=1;container=0;fillColor=#fff2cc;strokeColor=#d6b656;" vertex="1" parent="VOyZflQbIAdHZ1atrvON-66">
          <mxGeometry x="89.32656384711179" y="60" width="44.66328192355589" height="13.333333333333336" as="geometry" />
        </mxCell>
        <mxCell id="VOyZflQbIAdHZ1atrvON-76" value="" style="rounded=0;whiteSpace=wrap;html=1;container=0;fillColor=#fff2cc;strokeColor=#d6b656;" vertex="1" parent="VOyZflQbIAdHZ1atrvON-66">
          <mxGeometry x="89.32656384711179" y="73.33333333333334" width="44.66328192355589" height="13.333333333333336" as="geometry" />
        </mxCell>
        <mxCell id="VOyZflQbIAdHZ1atrvON-77" value="" style="rounded=0;whiteSpace=wrap;html=1;container=0;fillColor=#fff2cc;strokeColor=#d6b656;" vertex="1" parent="VOyZflQbIAdHZ1atrvON-66">
          <mxGeometry x="89.32656384711179" y="86.66666666666667" width="44.66328192355589" height="13.333333333333336" as="geometry" />
        </mxCell>
        <mxCell id="VOyZflQbIAdHZ1atrvON-78" value="" style="endArrow=none;dashed=1;html=1;rounded=0;entryX=0;entryY=0;entryDx=0;entryDy=0;fillColor=#f8cecc;strokeColor=#b85450;strokeWidth=3;" edge="1" parent="VOyZflQbIAdHZ1atrvON-66" target="VOyZflQbIAdHZ1atrvON-73">
          <mxGeometry width="50" height="50" relative="1" as="geometry">
            <mxPoint x="45.40766995561516" y="33.333333333333336" as="sourcePoint" />
            <mxPoint x="82.6270715585784" as="targetPoint" />
          </mxGeometry>
        </mxCell>
        <mxCell id="VOyZflQbIAdHZ1atrvON-79" value="" style="endArrow=none;dashed=1;html=1;rounded=0;entryX=0;entryY=0;entryDx=0;entryDy=0;exitX=1;exitY=1;exitDx=0;exitDy=0;fillColor=#f8cecc;strokeColor=#b85450;strokeWidth=3;" edge="1" parent="VOyZflQbIAdHZ1atrvON-66" target="VOyZflQbIAdHZ1atrvON-74">
          <mxGeometry width="50" height="50" relative="1" as="geometry">
            <mxPoint x="45.40766995561516" y="46.66666666666667" as="sourcePoint" />
            <mxPoint x="96.77044416770444" y="40" as="targetPoint" />
          </mxGeometry>
        </mxCell>
        <mxCell id="VOyZflQbIAdHZ1atrvON-80" value="&lt;font style=&quot;font-size: 10px;&quot;&gt;&lt;b&gt;1D-CNN&lt;br&gt;(8)&lt;/b&gt;&lt;br&gt;&lt;/font&gt;" style="text;html=1;strokeColor=none;fillColor=none;align=center;verticalAlign=middle;whiteSpace=wrap;rounded=0;" vertex="1" parent="VOyZflQbIAdHZ1atrvON-66">
          <mxGeometry x="90.81533991123032" width="43.17450585943735" height="26.66666666666667" as="geometry" />
        </mxCell>
        <mxCell id="VOyZflQbIAdHZ1atrvON-81" value="" style="rounded=0;whiteSpace=wrap;html=1;container=0;fillColor=#fff2cc;strokeColor=#d6b656;" vertex="1" parent="VOyZflQbIAdHZ1atrvON-66">
          <mxGeometry x="178.65312769422357" y="33.333333333333336" width="44.66328192355589" height="13.333333333333336" as="geometry" />
        </mxCell>
        <mxCell id="VOyZflQbIAdHZ1atrvON-82" value="" style="rounded=0;whiteSpace=wrap;html=1;container=0;fillColor=#fff2cc;strokeColor=#d6b656;" vertex="1" parent="VOyZflQbIAdHZ1atrvON-66">
          <mxGeometry x="178.65312769422357" y="46.66666666666667" width="44.66328192355589" height="13.333333333333336" as="geometry" />
        </mxCell>
        <mxCell id="VOyZflQbIAdHZ1atrvON-83" value="" style="rounded=0;whiteSpace=wrap;html=1;container=0;fillColor=#fff2cc;strokeColor=#d6b656;" vertex="1" parent="VOyZflQbIAdHZ1atrvON-66">
          <mxGeometry x="178.65312769422357" y="60" width="44.66328192355589" height="13.333333333333336" as="geometry" />
        </mxCell>
        <mxCell id="VOyZflQbIAdHZ1atrvON-84" value="" style="rounded=0;whiteSpace=wrap;html=1;container=0;fillColor=#fff2cc;strokeColor=#d6b656;" vertex="1" parent="VOyZflQbIAdHZ1atrvON-66">
          <mxGeometry x="178.65312769422357" y="73.33333333333334" width="44.66328192355589" height="13.333333333333336" as="geometry" />
        </mxCell>
        <mxCell id="VOyZflQbIAdHZ1atrvON-85" value="" style="rounded=0;whiteSpace=wrap;html=1;container=0;fillColor=#fff2cc;strokeColor=#d6b656;" vertex="1" parent="VOyZflQbIAdHZ1atrvON-66">
          <mxGeometry x="178.65312769422357" y="86.66666666666667" width="44.66328192355589" height="13.333333333333336" as="geometry" />
        </mxCell>
        <mxCell id="VOyZflQbIAdHZ1atrvON-86" value="" style="endArrow=none;dashed=1;html=1;rounded=0;entryX=0;entryY=0;entryDx=0;entryDy=0;fillColor=#f8cecc;strokeColor=#b85450;strokeWidth=3;" edge="1" parent="VOyZflQbIAdHZ1atrvON-66" target="VOyZflQbIAdHZ1atrvON-81">
          <mxGeometry width="50" height="50" relative="1" as="geometry">
            <mxPoint x="134.73423380272692" y="33.333333333333336" as="sourcePoint" />
            <mxPoint x="171.95363540569016" as="targetPoint" />
          </mxGeometry>
        </mxCell>
        <mxCell id="VOyZflQbIAdHZ1atrvON-87" value="" style="endArrow=none;dashed=1;html=1;rounded=0;exitX=1;exitY=1;exitDx=0;exitDy=0;fillColor=#f8cecc;strokeColor=#b85450;strokeWidth=3;" edge="1" parent="VOyZflQbIAdHZ1atrvON-66" source="VOyZflQbIAdHZ1atrvON-75">
          <mxGeometry width="50" height="50" relative="1" as="geometry">
            <mxPoint x="134.73423380272692" y="46.66666666666667" as="sourcePoint" />
            <mxPoint x="179.39751572628282" y="46.66666666666667" as="targetPoint" />
          </mxGeometry>
        </mxCell>
        <mxCell id="VOyZflQbIAdHZ1atrvON-88" value="&lt;font style=&quot;font-size: 10px;&quot;&gt;&lt;b&gt;1D-CNN&lt;br&gt;(4)&lt;/b&gt;&lt;br&gt;&lt;/font&gt;" style="text;html=1;strokeColor=none;fillColor=none;align=center;verticalAlign=middle;whiteSpace=wrap;rounded=0;" vertex="1" parent="VOyZflQbIAdHZ1atrvON-66">
          <mxGeometry x="180.14190375834207" width="43.17450585943735" height="26.66666666666667" as="geometry" />
        </mxCell>
        <mxCell id="VOyZflQbIAdHZ1atrvON-89" value="" style="endArrow=none;dashed=1;html=1;rounded=0;entryX=0;entryY=0;entryDx=0;entryDy=0;exitX=1;exitY=1;exitDx=0;exitDy=0;fillColor=#f8cecc;strokeColor=#b85450;strokeWidth=3;" edge="1" parent="VOyZflQbIAdHZ1atrvON-66" source="VOyZflQbIAdHZ1atrvON-70" target="VOyZflQbIAdHZ1atrvON-77">
          <mxGeometry width="50" height="50" relative="1" as="geometry">
            <mxPoint x="52.85155027620781" y="53.33333333333334" as="sourcePoint" />
            <mxPoint x="96.77044416770444" y="53.33333333333334" as="targetPoint" />
          </mxGeometry>
        </mxCell>
        <mxCell id="VOyZflQbIAdHZ1atrvON-90" value="" style="endArrow=none;dashed=1;html=1;rounded=0;entryX=0;entryY=1;entryDx=0;entryDy=0;exitX=1;exitY=1;exitDx=0;exitDy=0;fillColor=#f8cecc;strokeColor=#b85450;strokeWidth=3;" edge="1" parent="VOyZflQbIAdHZ1atrvON-66" source="VOyZflQbIAdHZ1atrvON-71" target="VOyZflQbIAdHZ1atrvON-77">
          <mxGeometry width="50" height="50" relative="1" as="geometry">
            <mxPoint x="52.10716224414853" y="93.33333333333334" as="sourcePoint" />
            <mxPoint x="96.77044416770444" y="93.33333333333334" as="targetPoint" />
          </mxGeometry>
        </mxCell>
        <mxCell id="VOyZflQbIAdHZ1atrvON-91" value="" style="endArrow=none;dashed=1;html=1;rounded=0;exitX=1;exitY=0.25;exitDx=0;exitDy=0;fillColor=#f8cecc;strokeColor=#b85450;strokeWidth=3;entryX=0;entryY=1;entryDx=0;entryDy=0;" edge="1" parent="VOyZflQbIAdHZ1atrvON-66" source="VOyZflQbIAdHZ1atrvON-75" target="VOyZflQbIAdHZ1atrvON-84">
          <mxGeometry width="50" height="50" relative="1" as="geometry">
            <mxPoint x="141.4337260912603" y="80" as="sourcePoint" />
            <mxPoint x="186.84139604687547" y="53.33333333333334" as="targetPoint" />
          </mxGeometry>
        </mxCell>
        <mxCell id="VOyZflQbIAdHZ1atrvON-92" value="" style="endArrow=none;dashed=1;html=1;rounded=0;fillColor=#f8cecc;strokeColor=#b85450;strokeWidth=3;exitX=1;exitY=1;exitDx=0;exitDy=0;entryX=0;entryY=1;entryDx=0;entryDy=0;" edge="1" parent="VOyZflQbIAdHZ1atrvON-66" source="VOyZflQbIAdHZ1atrvON-77" target="VOyZflQbIAdHZ1atrvON-85">
          <mxGeometry width="50" height="50" relative="1" as="geometry">
            <mxPoint x="142.17811412331957" y="40" as="sourcePoint" />
            <mxPoint x="186.84139604687547" y="40" as="targetPoint" />
          </mxGeometry>
        </mxCell>
        <mxCell id="VOyZflQbIAdHZ1atrvON-93" value="" style="rounded=0;whiteSpace=wrap;html=1;container=0;fillColor=#808080;strokeColor=#6F0000;fontColor=#ffffff;" vertex="1" parent="VOyZflQbIAdHZ1atrvON-66">
          <mxGeometry x="276.54015391001684" y="60" width="22.331640961777946" height="16.666666666666668" as="geometry" />
        </mxCell>
        <mxCell id="VOyZflQbIAdHZ1atrvON-94" value="" style="endArrow=none;dashed=1;html=1;rounded=0;entryX=0;entryY=0;entryDx=0;entryDy=0;fillColor=#f8cecc;strokeColor=#b85450;strokeWidth=3;exitX=1;exitY=0;exitDx=0;exitDy=0;" edge="1" parent="VOyZflQbIAdHZ1atrvON-66" source="VOyZflQbIAdHZ1atrvON-81" target="VOyZflQbIAdHZ1atrvON-93">
          <mxGeometry width="50" height="50" relative="1" as="geometry">
            <mxPoint x="142.17811412331957" y="40" as="sourcePoint" />
            <mxPoint x="186.0970080148162" y="40" as="targetPoint" />
          </mxGeometry>
        </mxCell>
        <mxCell id="VOyZflQbIAdHZ1atrvON-95" value="" style="endArrow=none;dashed=1;html=1;rounded=0;fillColor=#f8cecc;strokeColor=#b85450;strokeWidth=3;exitX=1;exitY=1;exitDx=0;exitDy=0;entryX=0;entryY=1;entryDx=0;entryDy=0;" edge="1" parent="VOyZflQbIAdHZ1atrvON-66" source="VOyZflQbIAdHZ1atrvON-85" target="VOyZflQbIAdHZ1atrvON-93">
          <mxGeometry width="50" height="50" relative="1" as="geometry">
            <mxPoint x="141.4337260912603" y="106.66666666666669" as="sourcePoint" />
            <mxPoint x="186.0970080148162" y="106.66666666666669" as="targetPoint" />
          </mxGeometry>
        </mxCell>
        <mxCell id="VOyZflQbIAdHZ1atrvON-96" value="" style="group" vertex="1" connectable="0" parent="1">
          <mxGeometry x="815.12" y="650" width="360" height="105" as="geometry" />
        </mxCell>
        <mxCell id="VOyZflQbIAdHZ1atrvON-97" value="" style="rounded=0;whiteSpace=wrap;html=1;container=0;fillColor=#e1d5e7;strokeColor=#9673a6;" vertex="1" parent="VOyZflQbIAdHZ1atrvON-96">
          <mxGeometry x="97.89748045178105" y="30.000000000000004" width="37.532580364900085" height="15.000000000000002" as="geometry" />
        </mxCell>
        <mxCell id="VOyZflQbIAdHZ1atrvON-98" value="" style="rounded=0;whiteSpace=wrap;html=1;container=0;fillColor=#e1d5e7;strokeColor=#9673a6;" vertex="1" parent="VOyZflQbIAdHZ1atrvON-96">
          <mxGeometry x="97.89748045178105" y="45.00000000000001" width="37.532580364900085" height="15.000000000000002" as="geometry" />
        </mxCell>
        <mxCell id="VOyZflQbIAdHZ1atrvON-99" value="" style="rounded=0;whiteSpace=wrap;html=1;container=0;fillColor=#e1d5e7;strokeColor=#9673a6;" vertex="1" parent="VOyZflQbIAdHZ1atrvON-96">
          <mxGeometry x="97.89748045178105" y="60.00000000000001" width="37.532580364900085" height="15.000000000000002" as="geometry" />
        </mxCell>
        <mxCell id="VOyZflQbIAdHZ1atrvON-100" value="" style="rounded=0;whiteSpace=wrap;html=1;container=0;fillColor=#e1d5e7;strokeColor=#9673a6;" vertex="1" parent="VOyZflQbIAdHZ1atrvON-96">
          <mxGeometry x="97.89748045178105" y="75.00000000000001" width="37.532580364900085" height="15.000000000000002" as="geometry" />
        </mxCell>
        <mxCell id="VOyZflQbIAdHZ1atrvON-101" value="" style="rounded=0;whiteSpace=wrap;html=1;container=0;fillColor=#e1d5e7;strokeColor=#9673a6;" vertex="1" parent="VOyZflQbIAdHZ1atrvON-96">
          <mxGeometry x="97.89748045178105" y="90.00000000000001" width="37.532580364900085" height="15.000000000000002" as="geometry" />
        </mxCell>
        <mxCell id="VOyZflQbIAdHZ1atrvON-102" value="" style="rounded=0;whiteSpace=wrap;html=1;container=0;fillColor=#a20025;strokeColor=#6F0000;fontColor=#ffffff;" vertex="1" parent="VOyZflQbIAdHZ1atrvON-96">
          <mxGeometry x="31.90269331016507" y="58.12500000000001" width="18.766290182450042" height="18.750000000000004" as="geometry" />
        </mxCell>
        <mxCell id="VOyZflQbIAdHZ1atrvON-103" value="&lt;font style=&quot;font-size: 10px;&quot;&gt;LCF&lt;/font&gt;" style="text;html=1;strokeColor=none;fillColor=none;align=center;verticalAlign=middle;whiteSpace=wrap;rounded=0;container=0;fontStyle=1;fontSize=14;" vertex="1" parent="VOyZflQbIAdHZ1atrvON-96">
          <mxGeometry x="25.33" y="26.25" width="31.90269331016507" height="22.500000000000004" as="geometry" />
        </mxCell>
        <mxCell id="VOyZflQbIAdHZ1atrvON-104" value="" style="endArrow=none;dashed=1;html=1;rounded=0;entryX=0;entryY=0;entryDx=0;entryDy=0;fillColor=#f8cecc;strokeColor=#b85450;strokeWidth=3;exitX=1;exitY=0;exitDx=0;exitDy=0;" edge="1" parent="VOyZflQbIAdHZ1atrvON-96" source="VOyZflQbIAdHZ1atrvON-102" target="VOyZflQbIAdHZ1atrvON-97">
          <mxGeometry width="50" height="50" relative="1" as="geometry">
            <mxPoint x="54.10947002606429" y="58.12500000000001" as="sourcePoint" />
            <mxPoint x="91.0165073848827" y="58.12500000000001" as="targetPoint" />
          </mxGeometry>
        </mxCell>
        <mxCell id="VOyZflQbIAdHZ1atrvON-105" value="" style="endArrow=none;dashed=1;html=1;rounded=0;entryX=0;entryY=1;entryDx=0;entryDy=0;exitX=1;exitY=1;exitDx=0;exitDy=0;fillColor=#f8cecc;strokeColor=#b85450;strokeWidth=3;" edge="1" parent="VOyZflQbIAdHZ1atrvON-96" source="VOyZflQbIAdHZ1atrvON-102" target="VOyZflQbIAdHZ1atrvON-101">
          <mxGeometry width="50" height="50" relative="1" as="geometry">
            <mxPoint x="60.99044309296264" y="176.25000000000003" as="sourcePoint" />
            <mxPoint x="97.89748045178105" y="176.25000000000003" as="targetPoint" />
          </mxGeometry>
        </mxCell>
        <mxCell id="VOyZflQbIAdHZ1atrvON-106" value="&lt;font style=&quot;font-size: 10px;&quot;&gt;&lt;b&gt;FNN&lt;br&gt;(m+1)&lt;/b&gt;&lt;br&gt;&lt;/font&gt;" style="text;html=1;strokeColor=none;fillColor=none;align=center;verticalAlign=middle;whiteSpace=wrap;rounded=0;" vertex="1" parent="VOyZflQbIAdHZ1atrvON-96">
          <mxGeometry x="99.14856646394439" width="36.28149435273675" height="30.000000000000004" as="geometry" />
        </mxCell>
        <mxCell id="VOyZflQbIAdHZ1atrvON-107" value="" style="rounded=0;whiteSpace=wrap;html=1;container=0;fillColor=#e1d5e7;strokeColor=#9673a6;" vertex="1" parent="VOyZflQbIAdHZ1atrvON-96">
          <mxGeometry x="172.9626411815812" y="30.000000000000004" width="37.532580364900085" height="15.000000000000002" as="geometry" />
        </mxCell>
        <mxCell id="VOyZflQbIAdHZ1atrvON-108" value="" style="rounded=0;whiteSpace=wrap;html=1;container=0;fillColor=#e1d5e7;strokeColor=#9673a6;" vertex="1" parent="VOyZflQbIAdHZ1atrvON-96">
          <mxGeometry x="172.9626411815812" y="45.00000000000001" width="37.532580364900085" height="15.000000000000002" as="geometry" />
        </mxCell>
        <mxCell id="VOyZflQbIAdHZ1atrvON-109" value="" style="rounded=0;whiteSpace=wrap;html=1;container=0;fillColor=#e1d5e7;strokeColor=#9673a6;" vertex="1" parent="VOyZflQbIAdHZ1atrvON-96">
          <mxGeometry x="172.9626411815812" y="60.00000000000001" width="37.532580364900085" height="15.000000000000002" as="geometry" />
        </mxCell>
        <mxCell id="VOyZflQbIAdHZ1atrvON-110" value="" style="rounded=0;whiteSpace=wrap;html=1;container=0;fillColor=#e1d5e7;strokeColor=#9673a6;" vertex="1" parent="VOyZflQbIAdHZ1atrvON-96">
          <mxGeometry x="172.9626411815812" y="75.00000000000001" width="37.532580364900085" height="15.000000000000002" as="geometry" />
        </mxCell>
        <mxCell id="VOyZflQbIAdHZ1atrvON-111" value="" style="rounded=0;whiteSpace=wrap;html=1;container=0;fillColor=#e1d5e7;strokeColor=#9673a6;" vertex="1" parent="VOyZflQbIAdHZ1atrvON-96">
          <mxGeometry x="172.9626411815812" y="90.00000000000001" width="37.532580364900085" height="15.000000000000002" as="geometry" />
        </mxCell>
        <mxCell id="VOyZflQbIAdHZ1atrvON-112" value="&lt;font style=&quot;font-size: 10px;&quot;&gt;&lt;b&gt;CNN&lt;br&gt;(8)&lt;/b&gt;&lt;br&gt;&lt;/font&gt;" style="text;html=1;strokeColor=none;fillColor=none;align=center;verticalAlign=middle;whiteSpace=wrap;rounded=0;" vertex="1" parent="VOyZflQbIAdHZ1atrvON-96">
          <mxGeometry x="174.21372719374455" width="36.28149435273675" height="30.000000000000004" as="geometry" />
        </mxCell>
        <mxCell id="VOyZflQbIAdHZ1atrvON-113" value="" style="endArrow=none;dashed=1;html=1;rounded=0;entryX=0;entryY=0;entryDx=0;entryDy=0;fillColor=#f8cecc;strokeColor=#b85450;strokeWidth=3;exitX=1;exitY=0;exitDx=0;exitDy=0;" edge="1" parent="VOyZflQbIAdHZ1atrvON-96" source="VOyZflQbIAdHZ1atrvON-97" target="VOyZflQbIAdHZ1atrvON-107">
          <mxGeometry width="50" height="50" relative="1" as="geometry">
            <mxPoint x="136.68114682884448" y="30.000000000000004" as="sourcePoint" />
            <mxPoint x="173.58818418766288" y="30.000000000000004" as="targetPoint" />
          </mxGeometry>
        </mxCell>
        <mxCell id="VOyZflQbIAdHZ1atrvON-114" value="" style="endArrow=none;dashed=1;html=1;rounded=0;exitX=1;exitY=0;exitDx=0;exitDy=0;fillColor=#f8cecc;strokeColor=#b85450;strokeWidth=3;entryX=0;entryY=0;entryDx=0;entryDy=0;" edge="1" parent="VOyZflQbIAdHZ1atrvON-96" source="VOyZflQbIAdHZ1atrvON-100" target="VOyZflQbIAdHZ1atrvON-108">
          <mxGeometry width="50" height="50" relative="1" as="geometry">
            <mxPoint x="136.0556038227628" y="75.00000000000001" as="sourcePoint" />
            <mxPoint x="174.21372719374455" y="45.00000000000001" as="targetPoint" />
          </mxGeometry>
        </mxCell>
        <mxCell id="VOyZflQbIAdHZ1atrvON-115" value="" style="endArrow=none;dashed=1;html=1;rounded=0;exitX=1;exitY=0;exitDx=0;exitDy=0;fillColor=#f8cecc;strokeColor=#b85450;strokeWidth=3;entryX=0;entryY=1;entryDx=0;entryDy=0;" edge="1" parent="VOyZflQbIAdHZ1atrvON-96" source="VOyZflQbIAdHZ1atrvON-99" target="VOyZflQbIAdHZ1atrvON-110">
          <mxGeometry width="50" height="50" relative="1" as="geometry">
            <mxPoint x="136.0556038227628" y="63.75" as="sourcePoint" />
            <mxPoint x="173.58818418766288" y="90.00000000000001" as="targetPoint" />
          </mxGeometry>
        </mxCell>
        <mxCell id="VOyZflQbIAdHZ1atrvON-116" value="" style="endArrow=none;dashed=1;html=1;rounded=0;fillColor=#f8cecc;strokeColor=#b85450;strokeWidth=3;exitX=1;exitY=1;exitDx=0;exitDy=0;entryX=0;entryY=1;entryDx=0;entryDy=0;" edge="1" parent="VOyZflQbIAdHZ1atrvON-96" source="VOyZflQbIAdHZ1atrvON-101" target="VOyZflQbIAdHZ1atrvON-111">
          <mxGeometry width="50" height="50" relative="1" as="geometry">
            <mxPoint x="136.0556038227628" y="105.00000000000001" as="sourcePoint" />
            <mxPoint x="173.58818418766288" y="105.00000000000001" as="targetPoint" />
          </mxGeometry>
        </mxCell>
        <mxCell id="VOyZflQbIAdHZ1atrvON-117" value="" style="rounded=0;whiteSpace=wrap;html=1;container=0;fillColor=#e1d5e7;strokeColor=#9673a6;" vertex="1" parent="VOyZflQbIAdHZ1atrvON-96">
          <mxGeometry x="248.02780191138137" y="30.000000000000004" width="37.532580364900085" height="15.000000000000002" as="geometry" />
        </mxCell>
        <mxCell id="VOyZflQbIAdHZ1atrvON-118" value="" style="rounded=0;whiteSpace=wrap;html=1;container=0;fillColor=#e1d5e7;strokeColor=#9673a6;" vertex="1" parent="VOyZflQbIAdHZ1atrvON-96">
          <mxGeometry x="248.02780191138137" y="45.00000000000001" width="37.532580364900085" height="15.000000000000002" as="geometry" />
        </mxCell>
        <mxCell id="VOyZflQbIAdHZ1atrvON-119" value="" style="rounded=0;whiteSpace=wrap;html=1;container=0;fillColor=#e1d5e7;strokeColor=#9673a6;" vertex="1" parent="VOyZflQbIAdHZ1atrvON-96">
          <mxGeometry x="248.02780191138137" y="60.00000000000001" width="37.532580364900085" height="15.000000000000002" as="geometry" />
        </mxCell>
        <mxCell id="VOyZflQbIAdHZ1atrvON-120" value="" style="rounded=0;whiteSpace=wrap;html=1;container=0;fillColor=#e1d5e7;strokeColor=#9673a6;" vertex="1" parent="VOyZflQbIAdHZ1atrvON-96">
          <mxGeometry x="248.02780191138137" y="75.00000000000001" width="37.532580364900085" height="15.000000000000002" as="geometry" />
        </mxCell>
        <mxCell id="VOyZflQbIAdHZ1atrvON-121" value="" style="rounded=0;whiteSpace=wrap;html=1;container=0;fillColor=#e1d5e7;strokeColor=#9673a6;" vertex="1" parent="VOyZflQbIAdHZ1atrvON-96">
          <mxGeometry x="248.02780191138137" y="90.00000000000001" width="37.532580364900085" height="15.000000000000002" as="geometry" />
        </mxCell>
        <mxCell id="VOyZflQbIAdHZ1atrvON-122" value="&lt;font style=&quot;font-size: 10px;&quot;&gt;&lt;b&gt;CNN&lt;br&gt;(16)&lt;/b&gt;&lt;br&gt;&lt;/font&gt;" style="text;html=1;strokeColor=none;fillColor=none;align=center;verticalAlign=middle;whiteSpace=wrap;rounded=0;" vertex="1" parent="VOyZflQbIAdHZ1atrvON-96">
          <mxGeometry x="249.27888792354472" width="36.28149435273675" height="30.000000000000004" as="geometry" />
        </mxCell>
        <mxCell id="VOyZflQbIAdHZ1atrvON-123" value="" style="endArrow=none;dashed=1;html=1;rounded=0;entryX=0;entryY=0;entryDx=0;entryDy=0;fillColor=#f8cecc;strokeColor=#b85450;strokeWidth=3;" edge="1" parent="VOyZflQbIAdHZ1atrvON-96">
          <mxGeometry width="50" height="50" relative="1" as="geometry">
            <mxPoint x="210.4952215464813" y="30.000000000000004" as="sourcePoint" />
            <mxPoint x="247.4022589052997" y="30.000000000000004" as="targetPoint" />
          </mxGeometry>
        </mxCell>
        <mxCell id="VOyZflQbIAdHZ1atrvON-124" value="" style="endArrow=none;dashed=1;html=1;rounded=0;entryX=0;entryY=0;entryDx=0;entryDy=0;exitX=1;exitY=1;exitDx=0;exitDy=0;fillColor=#f8cecc;strokeColor=#b85450;strokeWidth=3;" edge="1" parent="VOyZflQbIAdHZ1atrvON-96">
          <mxGeometry width="50" height="50" relative="1" as="geometry">
            <mxPoint x="210.4952215464813" y="45.00000000000001" as="sourcePoint" />
            <mxPoint x="247.4022589052997" y="45.00000000000001" as="targetPoint" />
          </mxGeometry>
        </mxCell>
        <mxCell id="VOyZflQbIAdHZ1atrvON-125" value="" style="endArrow=none;dashed=1;html=1;rounded=0;entryX=0;entryY=0;entryDx=0;entryDy=0;exitX=1;exitY=1;exitDx=0;exitDy=0;fillColor=#f8cecc;strokeColor=#b85450;strokeWidth=3;" edge="1" parent="VOyZflQbIAdHZ1atrvON-96">
          <mxGeometry width="50" height="50" relative="1" as="geometry">
            <mxPoint x="209.86967854039963" y="90.00000000000001" as="sourcePoint" />
            <mxPoint x="247.4022589052997" y="90.00000000000001" as="targetPoint" />
          </mxGeometry>
        </mxCell>
        <mxCell id="VOyZflQbIAdHZ1atrvON-126" value="" style="endArrow=none;dashed=1;html=1;rounded=0;entryX=0;entryY=1;entryDx=0;entryDy=0;exitX=1;exitY=1;exitDx=0;exitDy=0;fillColor=#f8cecc;strokeColor=#b85450;strokeWidth=3;" edge="1" parent="VOyZflQbIAdHZ1atrvON-96">
          <mxGeometry width="50" height="50" relative="1" as="geometry">
            <mxPoint x="209.86967854039963" y="105.00000000000001" as="sourcePoint" />
            <mxPoint x="247.4022589052997" y="105.00000000000001" as="targetPoint" />
          </mxGeometry>
        </mxCell>
        <mxCell id="VOyZflQbIAdHZ1atrvON-127" value="" style="rounded=0;whiteSpace=wrap;html=1;container=0;" vertex="1" parent="VOyZflQbIAdHZ1atrvON-96">
          <mxGeometry x="322.4674196350999" y="30.000000000000004" width="37.532580364900085" height="15.000000000000002" as="geometry" />
        </mxCell>
        <mxCell id="VOyZflQbIAdHZ1atrvON-128" value="" style="rounded=0;whiteSpace=wrap;html=1;container=0;" vertex="1" parent="VOyZflQbIAdHZ1atrvON-96">
          <mxGeometry x="322.4674196350999" y="45.00000000000001" width="37.532580364900085" height="15.000000000000002" as="geometry" />
        </mxCell>
        <mxCell id="VOyZflQbIAdHZ1atrvON-129" value="" style="rounded=0;whiteSpace=wrap;html=1;container=0;" vertex="1" parent="VOyZflQbIAdHZ1atrvON-96">
          <mxGeometry x="322.4674196350999" y="75.00000000000001" width="37.532580364900085" height="15.000000000000002" as="geometry" />
        </mxCell>
        <mxCell id="VOyZflQbIAdHZ1atrvON-130" value="" style="rounded=0;whiteSpace=wrap;html=1;container=0;" vertex="1" parent="VOyZflQbIAdHZ1atrvON-96">
          <mxGeometry x="322.4674196350999" y="90.00000000000001" width="37.532580364900085" height="15.000000000000002" as="geometry" />
        </mxCell>
        <mxCell id="VOyZflQbIAdHZ1atrvON-131" value="&lt;font style=&quot;font-size: 10px;&quot;&gt;&lt;b&gt;CNN&lt;br&gt;(p+1)&lt;/b&gt;&lt;br&gt;&lt;/font&gt;" style="text;html=1;strokeColor=none;fillColor=none;align=center;verticalAlign=middle;whiteSpace=wrap;rounded=0;" vertex="1" parent="VOyZflQbIAdHZ1atrvON-96">
          <mxGeometry x="323.0929626411816" width="36.28149435273675" height="30.000000000000004" as="geometry" />
        </mxCell>
        <mxCell id="VOyZflQbIAdHZ1atrvON-132" value="" style="endArrow=none;dashed=1;html=1;rounded=0;entryX=0;entryY=0;entryDx=0;entryDy=0;fillColor=#f8cecc;strokeColor=#b85450;strokeWidth=3;" edge="1" parent="VOyZflQbIAdHZ1atrvON-96">
          <mxGeometry width="50" height="50" relative="1" as="geometry">
            <mxPoint x="285.5603822762815" y="30.000000000000004" as="sourcePoint" />
            <mxPoint x="322.4674196350999" y="30.000000000000004" as="targetPoint" />
          </mxGeometry>
        </mxCell>
        <mxCell id="VOyZflQbIAdHZ1atrvON-133" value="" style="endArrow=none;dashed=1;html=1;rounded=0;entryX=0;entryY=0;entryDx=0;entryDy=0;exitX=1;exitY=1;exitDx=0;exitDy=0;fillColor=#f8cecc;strokeColor=#b85450;strokeWidth=3;" edge="1" parent="VOyZflQbIAdHZ1atrvON-96">
          <mxGeometry width="50" height="50" relative="1" as="geometry">
            <mxPoint x="285.5603822762815" y="45.00000000000001" as="sourcePoint" />
            <mxPoint x="322.4674196350999" y="45.00000000000001" as="targetPoint" />
          </mxGeometry>
        </mxCell>
        <mxCell id="VOyZflQbIAdHZ1atrvON-134" value="" style="endArrow=none;dashed=1;html=1;rounded=0;entryX=0;entryY=0;entryDx=0;entryDy=0;exitX=1;exitY=1;exitDx=0;exitDy=0;fillColor=#f8cecc;strokeColor=#b85450;strokeWidth=3;" edge="1" parent="VOyZflQbIAdHZ1atrvON-96">
          <mxGeometry width="50" height="50" relative="1" as="geometry">
            <mxPoint x="284.9348392701998" y="90.00000000000001" as="sourcePoint" />
            <mxPoint x="322.4674196350999" y="90.00000000000001" as="targetPoint" />
          </mxGeometry>
        </mxCell>
        <mxCell id="VOyZflQbIAdHZ1atrvON-135" value="" style="endArrow=none;dashed=1;html=1;rounded=0;entryX=0;entryY=1;entryDx=0;entryDy=0;exitX=1;exitY=1;exitDx=0;exitDy=0;fillColor=#f8cecc;strokeColor=#b85450;strokeWidth=3;" edge="1" parent="VOyZflQbIAdHZ1atrvON-96">
          <mxGeometry width="50" height="50" relative="1" as="geometry">
            <mxPoint x="284.9348392701998" y="105.00000000000001" as="sourcePoint" />
            <mxPoint x="322.4674196350999" y="105.00000000000001" as="targetPoint" />
          </mxGeometry>
        </mxCell>
        <mxCell id="VOyZflQbIAdHZ1atrvON-136" value="" style="rounded=0;whiteSpace=wrap;html=1;container=0;" vertex="1" parent="VOyZflQbIAdHZ1atrvON-96">
          <mxGeometry x="322.4674196350999" y="60.00000000000001" width="37.532580364900085" height="15.000000000000002" as="geometry" />
        </mxCell>
        <mxCell id="VOyZflQbIAdHZ1atrvON-137" value="" style="endArrow=classic;html=1;rounded=0;exitX=1;exitY=0.5;exitDx=0;exitDy=0;" edge="1" parent="VOyZflQbIAdHZ1atrvON-96">
          <mxGeometry width="50" height="50" relative="1" as="geometry">
            <mxPoint x="-10" y="67" as="sourcePoint" />
            <mxPoint x="30" y="67" as="targetPoint" />
          </mxGeometry>
        </mxCell>
        <mxCell id="VOyZflQbIAdHZ1atrvON-138" value="&lt;font style=&quot;font-size: 14px;&quot;&gt;&lt;b&gt;FNN&lt;br&gt;(1)&lt;/b&gt;&lt;br&gt;&lt;/font&gt;" style="text;html=1;strokeColor=none;fillColor=none;align=center;verticalAlign=middle;whiteSpace=wrap;rounded=0;" vertex="1" parent="1">
          <mxGeometry x="742" y="323.75" width="58" height="40" as="geometry" />
        </mxCell>
        <mxCell id="VOyZflQbIAdHZ1atrvON-139" value="&lt;b style=&quot;&quot;&gt;&lt;font style=&quot;font-size: 14px;&quot;&gt;Encoder-Decoder Stage&lt;/font&gt;&lt;/b&gt;" style="text;html=1;strokeColor=#b85450;fillColor=#f8cecc;align=center;verticalAlign=middle;whiteSpace=wrap;rounded=0;fontStyle=0;fontSize=16;opacity=50;" vertex="1" parent="1">
          <mxGeometry x="1140" y="440" width="141" height="50" as="geometry" />
        </mxCell>
        <mxCell id="VOyZflQbIAdHZ1atrvON-140" value="" style="group" vertex="1" connectable="0" parent="1">
          <mxGeometry x="900" y="320" width="270" height="60" as="geometry" />
        </mxCell>
        <mxCell id="VOyZflQbIAdHZ1atrvON-141" value="" style="endArrow=classic;html=1;rounded=0;fillColor=#d80073;strokeColor=#A50040;" edge="1" parent="VOyZflQbIAdHZ1atrvON-140">
          <mxGeometry width="50" height="50" relative="1" as="geometry">
            <mxPoint y="44.5" as="sourcePoint" />
            <mxPoint x="55" y="44.5" as="targetPoint" />
          </mxGeometry>
        </mxCell>
        <mxCell id="VOyZflQbIAdHZ1atrvON-142" value="&lt;b style=&quot;font-size: 16px;&quot;&gt;&lt;font style=&quot;font-size: 16px;&quot;&gt;:&amp;nbsp; &amp;nbsp; backporpagation&lt;/font&gt;&lt;/b&gt;" style="text;html=1;strokeColor=none;fillColor=none;align=center;verticalAlign=middle;whiteSpace=wrap;rounded=0;fontSize=16;" vertex="1" parent="VOyZflQbIAdHZ1atrvON-140">
          <mxGeometry x="52.5" y="30" width="187.5" height="30" as="geometry" />
        </mxCell>
        <mxCell id="VOyZflQbIAdHZ1atrvON-143" value="" style="endArrow=classic;html=1;rounded=0;fillColor=#d80073;strokeColor=#000000;" edge="1" parent="VOyZflQbIAdHZ1atrvON-140">
          <mxGeometry width="50" height="50" relative="1" as="geometry">
            <mxPoint y="14.5" as="sourcePoint" />
            <mxPoint x="55" y="14.5" as="targetPoint" />
          </mxGeometry>
        </mxCell>
        <mxCell id="VOyZflQbIAdHZ1atrvON-144" value="&lt;b style=&quot;font-size: 16px;&quot;&gt;&lt;font style=&quot;font-size: 16px;&quot;&gt;:&amp;nbsp; &amp;nbsp; forward porpagation&lt;/font&gt;&lt;/b&gt;" style="text;html=1;strokeColor=none;fillColor=none;align=center;verticalAlign=middle;whiteSpace=wrap;rounded=0;fontSize=16;" vertex="1" parent="VOyZflQbIAdHZ1atrvON-140">
          <mxGeometry x="52.5" width="217.5" height="30" as="geometry" />
        </mxCell>
        <mxCell id="VOyZflQbIAdHZ1atrvON-145" value="" style="rounded=1;whiteSpace=wrap;html=1;strokeWidth=1;fillColor=#F19C99;strokeColor=#4D4D4D;opacity=14;dashed=1;dashPattern=8 8;" vertex="1" parent="1">
          <mxGeometry x="475.25" y="610" width="736.25" height="200" as="geometry" />
        </mxCell>
        <mxCell id="VOyZflQbIAdHZ1atrvON-146" value="" style="endArrow=none;dashed=1;html=1;dashPattern=1 3;strokeWidth=2;rounded=0;entryX=0.05;entryY=0.979;entryDx=0;entryDy=0;entryPerimeter=0;exitX=0.038;exitY=-0.012;exitDx=0;exitDy=0;exitPerimeter=0;" edge="1" parent="1" source="VOyZflQbIAdHZ1atrvON-145" target="VOyZflQbIAdHZ1atrvON-4">
          <mxGeometry width="50" height="50" relative="1" as="geometry">
            <mxPoint x="860" y="630" as="sourcePoint" />
            <mxPoint x="910" y="580" as="targetPoint" />
          </mxGeometry>
        </mxCell>
        <mxCell id="VOyZflQbIAdHZ1atrvON-147" value="" style="endArrow=none;dashed=1;html=1;dashPattern=1 3;strokeWidth=2;rounded=0;entryX=0.989;entryY=0.959;entryDx=0;entryDy=0;entryPerimeter=0;exitX=0.981;exitY=0.012;exitDx=0;exitDy=0;exitPerimeter=0;" edge="1" parent="1" source="VOyZflQbIAdHZ1atrvON-145" target="VOyZflQbIAdHZ1atrvON-3">
          <mxGeometry width="50" height="50" relative="1" as="geometry">
            <mxPoint x="562" y="598" as="sourcePoint" />
            <mxPoint x="700" y="564" as="targetPoint" />
          </mxGeometry>
        </mxCell>
        <mxCell id="VOyZflQbIAdHZ1atrvON-148" value="&lt;b style=&quot;font-size: 16px;&quot;&gt;PM2.5&lt;/b&gt;" style="rounded=1;whiteSpace=wrap;html=1;fontSize=16;" vertex="1" parent="1">
          <mxGeometry x="800" y="250" width="60" height="40" as="geometry" />
        </mxCell>
        <mxCell id="VOyZflQbIAdHZ1atrvON-149" value="" style="endArrow=classic;html=1;rounded=0;" edge="1" parent="1">
          <mxGeometry width="50" height="50" relative="1" as="geometry">
            <mxPoint x="820" y="330" as="sourcePoint" />
            <mxPoint x="820" y="300" as="targetPoint" />
          </mxGeometry>
        </mxCell>
        <mxCell id="VOyZflQbIAdHZ1atrvON-150" value="" style="endArrow=classic;html=1;rounded=0;fillColor=#d80073;strokeColor=#A50040;" edge="1" parent="1">
          <mxGeometry width="50" height="50" relative="1" as="geometry">
            <mxPoint x="844" y="300" as="sourcePoint" />
            <mxPoint x="844" y="330" as="targetPoint" />
          </mxGeometry>
        </mxCell>
        <mxCell id="VOyZflQbIAdHZ1atrvON-151" value="&lt;span style=&quot;font-size: 24px;&quot;&gt;(a)&lt;/span&gt;" style="text;html=1;strokeColor=none;fillColor=none;align=center;verticalAlign=middle;whiteSpace=wrap;rounded=0;fontStyle=1;fontSize=24;" vertex="1" parent="1">
          <mxGeometry x="229" y="293.75" width="60" height="30" as="geometry" />
        </mxCell>
        <mxCell id="VOyZflQbIAdHZ1atrvON-152" value="&lt;span style=&quot;font-size: 24px;&quot;&gt;(c)&lt;/span&gt;" style="text;html=1;strokeColor=none;fillColor=none;align=center;verticalAlign=middle;whiteSpace=wrap;rounded=0;fontStyle=1;fontSize=24;" vertex="1" parent="1">
          <mxGeometry x="798.37" y="620" width="60" height="30" as="geometry" />
        </mxCell>
        <mxCell id="VOyZflQbIAdHZ1atrvON-153" value="&lt;span style=&quot;font-size: 24px;&quot;&gt;(b)&lt;/span&gt;" style="text;html=1;strokeColor=none;fillColor=none;align=center;verticalAlign=middle;whiteSpace=wrap;rounded=0;fontStyle=1;fontSize=24;" vertex="1" parent="1">
          <mxGeometry x="1180.5" y="250" width="60" height="30" as="geometry" />
        </mxCell>
        <mxCell id="VOyZflQbIAdHZ1atrvON-154" value="" style="rounded=0;whiteSpace=wrap;html=1;fillColor=#d0cee2;strokeColor=#56517e;container=0;" vertex="1" parent="1">
          <mxGeometry x="469" y="530" width="51" height="20" as="geometry" />
        </mxCell>
        <mxCell id="VOyZflQbIAdHZ1atrvON-155" value="$$(p+0)$$" style="text;html=1;strokeColor=none;fillColor=none;align=center;verticalAlign=middle;whiteSpace=wrap;rounded=0;container=0;fontSize=16;" vertex="1" parent="1">
          <mxGeometry x="485.25" y="550" width="30" height="30" as="geometry" />
        </mxCell>
        <mxCell id="VOyZflQbIAdHZ1atrvON-156" value="" style="rounded=0;whiteSpace=wrap;html=1;container=0;fillColor=#080808;" vertex="1" parent="1">
          <mxGeometry x="520" y="530" width="10" height="20" as="geometry" />
        </mxCell>
        <mxCell id="VOyZflQbIAdHZ1atrvON-157" value="" style="rounded=0;whiteSpace=wrap;html=1;container=0;" vertex="1" parent="1">
          <mxGeometry x="466.25" y="330" width="9" height="27.5" as="geometry" />
        </mxCell>
        <mxCell id="VOyZflQbIAdHZ1atrvON-158" value="" style="rounded=0;whiteSpace=wrap;html=1;container=0;" vertex="1" parent="1">
          <mxGeometry x="361" y="395" width="9" height="27" as="geometry" />
        </mxCell>
        <mxCell id="VOyZflQbIAdHZ1atrvON-159" value="" style="rounded=0;whiteSpace=wrap;html=1;container=0;" vertex="1" parent="1">
          <mxGeometry x="610" y="440" width="9" height="20" as="geometry" />
        </mxCell>
        <mxCell id="VOyZflQbIAdHZ1atrvON-160" value="" style="rounded=0;whiteSpace=wrap;html=1;container=0;" vertex="1" parent="1">
          <mxGeometry x="320" y="465" width="9" height="27.5" as="geometry" />
        </mxCell>
        <mxCell id="VOyZflQbIAdHZ1atrvON-161" value="" style="rounded=0;whiteSpace=wrap;html=1;container=0;" vertex="1" parent="1">
          <mxGeometry x="370" y="545" width="8" height="27.5" as="geometry" />
        </mxCell>
        <mxCell id="VOyZflQbIAdHZ1atrvON-162" value="" style="rounded=0;whiteSpace=wrap;html=1;container=0;" vertex="1" parent="1">
          <mxGeometry x="610" y="460" width="9" height="20" as="geometry" />
        </mxCell>
        <mxCell id="VOyZflQbIAdHZ1atrvON-163" value="" style="rounded=0;whiteSpace=wrap;html=1;container=0;" vertex="1" parent="1">
          <mxGeometry x="610" y="500" width="9" height="20" as="geometry" />
        </mxCell>
        <mxCell id="VOyZflQbIAdHZ1atrvON-164" value="" style="rounded=0;whiteSpace=wrap;html=1;container=0;" vertex="1" parent="1">
          <mxGeometry x="610" y="520" width="9" height="20" as="geometry" />
        </mxCell>
      </root>
    </mxGraphModel>
  </diagram>
</mxfile>
